<svg width="318" height="279" xmlns="http://www.w3.org/2000/svg" xmlns:xlink="http://www.w3.org/1999/xlink"><defs><path d="M310.34 153.5l-62.43 108.131a30 30 0 0 1-25.98 15H97.07a30 30 0 0 1-25.98-15L8.66 153.5a30 30 0 0 1 0-30L71.09 15.369a30 30 0 0 1 25.98-15h124.86a30 30 0 0 1 25.98 15L310.34 123.5a30 30 0 0 1 0 30z" id="a"/></defs><g fill="none" fill-rule="evenodd"><g transform="translate(-1 1)"><mask id="b" fill="#fff"><use xlink:href="#a"/></mask><g mask="url(#b)" fill="#FFE01C" fill-rule="nonzero"><path transform="translate(-58 -13)" d="M0.5 0H455.5V303H0.5z"/></g></g><path d="M228.661 96.809l6.339-6.34L207.53 63l-6.339 6.339 3.698 3.698L190.626 87.3l-10.301-10.301-20.074 20.073 5.6 5.6-54.945 54.946 4.701 4.701-8.296 8.296v13.735L82 209.66 88.339 216l25.311-25.311h13.735l8.296-8.296 4.701 4.701 54.946-54.945 5.6 5.6L221 117.675l-10.3-10.301 14.262-14.263 3.698 3.698zm-104.99 84.915h-7.395v-7.396l5.67-5.67 7.396 7.396-5.67 5.67zm-.087-24.106l34.871-34.872 16.799 16.799-7.396 7.396-8.4-8.4-6.338 6.34 8.4 8.399-7.403 7.402-8.4-8.4-6.338 6.34 8.399 8.399-7.396 7.396-16.798-16.8zm58.009-24.413l-16.799-16.798 7.396-7.396 16.799 16.799-7.396 7.395zm19.334-8.135L172.93 97.073l7.395-7.396 27.998 27.998-7.396 7.395zm3.434-24.035l-7.396-7.396 14.264-14.263 7.395 7.395-14.263 14.264z" fill="#000" fill-rule="nonzero"/></g></svg>